P2
#Generated by exportMapLayout in Map.h. Obstacle Ratio=0.3235 Obstacle Size=2
100 100
255
100 100 0 0 0 0 0 0 100 0 0 0 100 0 0 0 0 0 100 100 100 0 0 0 0 0 100 100 100 0 0 0 100 0 0 0 0 0 0 0 0 0 0 0 0 0 0 0 0 100 0 0 0 100 100 100 0 0 0 100 0 0 0 0 0 0 0 0 0 0 0 100 100 100 0 0 0 0 0 0 100 100 100 0 100 0 0 0 0 0 100 0 0 0 0 0 100 100 100 100
100 100 0 0 0 0 0 0 100 0 0 0 100 0 0 0 0 0 100 100 100 0 0 100 100 100 100 100 100 0 0 0 100 0 0 0 0 0 0 0 0 0 0 0 0 0 0 0 0 0 0 0 0 100 100 100 0 0 0 0 0 0 100 100 100 0 0 0 0 0 0 100 100 100 0 0 0 0 0 100 100 100 100 0 100 0 0 0 0 0 0 0 0 100 100 100 100 100 100 0
0 0 0 0 0 0 0 0 0 0 0 0 0 0 0 0 0 0 0 0 0 0 0 0 0 100 100 100 0 0 0 0 0 0 0 100 100 100 0 0 0 0 0 0 0 0 100 0 0 0 0 0 100 100 100 100 0 0 100 0 0 100 100 100 100 100 0 100 100 100 100 100 100 100 0 0 0 0 0 100 100 100 0 0 0 0 0 0 100 100 100 0 0 100 100 100 0 100 0 0
0 0 0 0 0 0 0 0 100 0 0 0 0 0 0 100 0 0 0 0 0 0 0 0 0 100 100 100 0 0 0 0 0 0 0 100 100 100 0 0 0 0 0 100 0 0 100 100 0 0 0 0 0 0 0 0 0 0 100 0 100 0 0 100 100 100 0 100 100 100 0 0 0 0 0 0 0 0 100 100 100 100 0 0 0 0 0 0 0 0 0 0 0 100 100 100 0 0 100 100
0 0 0 100 100 100 0 0 0 0 0 0 0 0 0 100 0 100 0 0 0 0 100 100 100 100 100 0 100 0 0 0 0 0 0 100 100 100 0 100 100 100 0 100 0 0 100 0 0 0 0 0 0 0 0 0 0 0 100 0 100 0 0 100 100 100 0 100 100 100 0 0 0 0 0 0 0 0 100 0 0 0 100 100 100 0 0 0 0 0 0 0 100 0 0 0 0 100 100 100
0 0 0 100 100 100 0 0 0 0 0 0 0 0 0 100 0 0 0 0 0 0 100 100 100 100 100 100 100 100 0 0 0 0 0 0 0 100 0 100 100 100 0 100 100 100 100 0 0 0 0 100 0 0 0 0 0 0 0 0 100 0 100 100 100 0 0 0 0 100 100 100 0 100 0 0 0 0 0 0 100 100 100 0 0 0 0 0 0 0 0 0 0 0 0 100 100 100 0 100
0 0 0 100 100 100 100 0 0 100 0 0 100 100 100 0 0 0 0 0 0 0 100 100 100 100 100 0 0 0 0 0 0 0 0 0 0 0 0 100 100 100 0 0 0 0 0 0 0 0 0 0 0 0 0 0 100 100 100 0 0 0 0 0 0 0 0 0 0 0 0 0 0 0 0 100 0 0 0 0 100 100 100 0 0 0 0 100 100 100 100 0 0 0 100 100 100 0 0 100
0 0 0 0 0 0 0 0 0 100 0 0 100 100 100 0 0 0 0 0 0 0 0 100 0 0 0 0 0 0 0 0 0 0 0 0 0 0 0 0 0 0 0 100 0 0 0 0 0 0 0 0 0 0 0 0 100 0 0 0 0 0 0 0 0 0 0 0 100 0 0 0 0 100 100 100 0 0 0 0 100 100 100 100 0 0 100 0 0 0 0 0 0 0 100 100 100 0 0 100
0 0 0 0 0 0 100 100 100 100 0 0 0 0 0 0 0 0 0 0 0 0 0 100 100 100 100 100 100 100 0 0 0 0 0 0 0 0 0 0 0 0 0 0 0 100 100 100 0 0 0 0 100 100 100 100 100 100 100 100 0 0 0 0 0 100 0 100 100 0 0 0 0 100 0 0 0 0 0 0 0 0 0 0 0 0 100 100 100 100 0 100 0 0 100 100 100 100 0 0
0 0 0 0 0 0 100 100 100 100 100 100 0 0 0 0 100 100 100 0 0 0 0 0 100 100 100 100 100 100 100 0 0 0 0 0 0 0 100 100 100 0 0 0 0 0 0 0 0 0 0 0 100 0 0 0 0 0 0 0 0 0 0 100 100 0 0 100 100 0 0 0 0 100 0 0 0 0 0 0 0 100 0 0 0 0 100 0 0 0 0 100 0 0 0 0 0 100 0 0
100 0 0 0 0 0 100 100 100 0 0 100 0 0 0 0 100 100 100 0 0 0 0 0 100 100 100 100 100 100 0 100 0 0 0 0 0 0 100 100 100 100 0 100 0 0 0 0 0 0 0 100 100 100 0 0 0 0 0 0 0 0 0 100 0 0 0 100 0 0 0 0 0 100 0 0 0 0 0 0 0 100 0 0 0 0 100 100 100 0 0 100 0 0 100 100 100 100 100 0
100 0 0 0 0 0 0 0 0 0 0 0 0 0 0 0 100 100 100 100 100 100 0 0 0 0 100 100 100 0 0 100 0 0 0 0 100 100 100 100 100 0 0 100 100 100 0 0 0 0 0 100 100 100 100 100 100 0 0 0 0 0 0 100 0 0 0 0 0 100 100 100 100 100 100 0 0 0 0 0 0 100 0 0 0 0 0 0 0 0 0 0 0 0 0 0 0 0 100 0
100 0 0 0 100 100 100 100 100 100 0 0 0 0 0 0 0 0 0 0 0 100 100 100 0 100 100 100 100 0 0 100 100 100 100 0 100 100 100 100 100 100 0 100 100 100 0 0 0 0 0 100 100 100 100 100 100 0 0 0 0 0 0 0 0 0 0 0 0 100 0 0 0 0 0 0 0 0 0 0 100 100 100 0 0 0 0 100 100 100 0 0 0 0 0 100 100 100 100 0
0 0 0 0 100 100 100 100 100 100 0 100 100 100 0 0 0 0 0 0 0 0 0 0 0 100 100 100 0 0 0 0 0 0 100 0 100 100 100 100 100 100 0 100 100 100 0 0 0 0 0 0 0 0 100 100 100 0 0 0 100 0 0 0 0 0 0 0 0 100 0 0 0 0 0 0 0 0 0 0 0 0 0 0 0 0 100 100 100 100 0 0 0 100 100 100 100 100 100 0
100 100 0 0 100 100 100 100 100 100 0 0 0 0 0 0 0 0 0 0 100 100 100 0 0 100 100 100 0 0 0 100 100 100 100 100 100 100 0 100 100 100 100 0 0 0 0 0 0 0 0 0 0 0 0 0 0 0 0 0 0 0 0 0 0 0 0 0 0 0 0 0 0 100 100 100 100 0 0 0 0 0 0 0 0 0 100 100 100 100 0 100 0 100 100 100 100 100 100 0
100 100 0 0 0 0 0 0 0 0 0 0 0 0 0 0 0 0 0 0 100 100 100 0 0 0 0 0 100 100 100 100 0 0 100 100 100 100 0 0 100 100 100 0 0 0 0 0 0 0 0 0 0 0 0 0 0 0 100 100 100 0 0 0 0 0 0 0 0 0 0 0 0 0 100 0 0 0 0 0 0 100 100 100 0 0 100 0 0 0 0 0 0 100 100 100 0 0 0 0
100 100 100 100 100 0 0 0 0 0 0 0 0 0 0 0 0 0 0 0 100 100 100 100 100 100 100 100 100 100 100 0 0 0 0 100 100 100 0 0 100 100 100 0 0 0 0 0 100 0 0 0 0 0 0 0 0 0 0 100 0 0 0 0 0 0 0 0 0 0 0 0 0 0 0 100 100 100 0 0 0 100 100 100 0 0 0 0 0 0 0 100 100 100 0 0 100 0 100 100
0 0 100 100 100 100 0 0 0 0 0 0 0 0 0 0 0 0 0 0 0 0 100 100 100 0 0 0 100 100 100 0 0 0 0 0 0 0 0 100 0 0 0 0 0 100 100 100 0 0 100 0 0 0 0 0 0 0 0 0 100 100 100 0 0 0 0 0 0 0 0 0 0 0 0 100 100 100 0 0 0 100 100 100 0 0 100 100 100 100 0 0 0 0 0 0 100 0 100 100
100 100 100 100 100 100 0 0 0 0 0 0 0 0 0 0 0 0 0 0 0 0 100 100 100 0 0 0 100 100 100 0 0 0 0 0 100 0 0 100 0 0 0 0 0 0 0 100 0 0 100 0 100 0 0 0 0 0 0 100 100 100 0 0 0 0 0 0 0 0 0 0 0 100 0 100 100 100 0 0 0 0 0 0 0 0 100 100 100 100 0 0 100 100 100 0 100 0 100 100
0 0 100 0 0 100 0 0 100 100 100 0 0 0 0 0 0 0 0 0 0 0 0 0 0 0 0 0 100 100 100 0 0 0 0 0 100 0 0 100 0 0 0 0 0 0 0 100 0 0 100 0 0 0 0 0 0 0 0 0 100 100 100 0 0 0 0 0 0 0 0 100 100 0 0 0 0 0 0 0 0 0 0 0 0 0 100 100 100 100 100 0 100 100 100 0 0 0 100 100
0 0 100 0 0 0 0 0 100 100 100 0 0 0 0 0 0 0 0 0 100 100 100 0 0 0 0 0 0 0 100 0 0 0 0 0 100 0 0 100 100 100 0 0 0 0 0 100 0 0 0 0 0 0 0 0 0 0 0 0 100 100 100 0 0 0 0 0 0 0 0 100 0 0 0 0 0 0 0 0 0 0 0 100 0 0 0 0 0 0 100 0 100 100 100 100 100 100 100 100
0 0 100 0 0 0 0 0 100 100 100 0 0 0 0 0 0 0 0 0 0 0 100 0 0 0 0 0 0 0 100 0 0 100 100 100 0 0 0 0 0 0 0 0 0 100 0 0 0 0 0 0 0 0 100 0 0 0 0 0 100 100 100 0 0 0 0 0 0 0 0 100 100 0 0 0 0 0 0 0 0 0 0 100 0 0 0 0 0 100 100 100 100 0 100 100 100 100 0 0
0 0 0 0 100 100 100 0 0 0 0 0 0 0 0 100 0 0 0 0 0 0 100 0 100 100 100 100 100 0 100 100 100 0 0 100 100 100 0 0 0 0 0 0 0 100 0 0 0 0 0 0 0 0 100 0 0 0 0 0 100 100 100 0 0 0 0 0 0 0 0 0 0 100 100 100 0 0 0 100 0 0 0 100 0 0 0 0 0 100 100 100 100 100 100 100 100 100 100 100
0 0 0 0 100 100 100 0 0 0 0 0 0 0 0 0 0 0 0 0 0 100 100 100 100 100 100 0 0 0 0 0 0 0 0 100 100 100 100 0 0 0 0 0 0 100 0 0 0 100 100 100 0 100 100 0 0 0 0 0 100 100 100 0 0 0 0 0 0 0 0 0 0 0 0 0 0 0 0 100 0 0 0 0 0 0 0 0 0 100 100 100 100 100 100 0 0 0 100 100
0 0 0 0 100 100 100 0 0 0 0 0 0 0 0 0 0 0 0 0 0 100 100 100 100 100 100 100 100 100 0 100 100 100 0 100 100 100 100 100 100 0 0 0 0 0 0 0 0 0 0 0 0 0 0 0 0 0 0 100 100 100 100 0 0 0 0 100 0 0 0 0 0 0 0 0 0 0 0 100 0 0 0 0 0 0 100 100 100 0 0 0 100 100 100 0 0 100 100 100
0 0 0 100 100 100 100 0 0 0 0 0 0 0 0 0 0 0 100 0 0 100 100 100 0 0 0 100 100 100 0 100 100 100 100 100 100 0 0 0 100 100 100 0 0 0 0 0 0 0 100 100 100 0 0 100 0 0 0 0 0 0 0 0 0 0 0 100 0 0 0 0 100 100 100 0 0 0 0 0 0 0 0 0 0 0 100 100 100 0 100 0 0 0 0 0 0 0 0 0
100 0 0 100 100 100 100 0 0 0 0 0 0 0 0 0 0 0 100 0 0 100 100 100 0 0 0 100 100 100 0 100 100 100 0 100 0 0 0 0 100 100 100 0 0 0 100 100 100 0 100 100 100 0 0 0 100 100 100 0 100 100 100 0 0 0 0 100 0 0 0 0 0 0 0 0 100 100 100 0 0 0 0 0 100 100 100 100 100 0 0 0 0 0 0 0 0 100 100 100
0 0 0 100 100 100 0 0 0 0 0 0 100 100 100 100 100 0 100 0 0 0 0 0 0 0 100 0 0 100 0 0 0 0 0 100 0 0 0 0 100 100 100 0 0 100 100 100 0 0 0 0 0 0 100 0 100 100 100 0 0 0 100 0 0 0 0 0 0 0 100 100 100 0 0 0 100 100 100 0 0 0 0 0 0 0 0 0 100 100 100 100 100 0 0 0 0 0 0 0
100 0 0 0 100 100 100 0 0 0 0 0 100 100 100 0 0 0 100 100 100 100 0 0 0 0 0 0 0 100 0 0 0 0 0 100 0 0 0 0 0 0 100 0 0 100 100 100 100 100 100 0 0 100 100 100 100 100 100 0 0 0 100 0 0 0 0 0 0 0 100 100 100 0 0 0 100 100 100 0 0 0 0 0 0 0 0 0 100 100 100 100 100 0 0 0 0 0 0 0
100 100 100 100 100 100 0 0 0 0 0 0 100 100 100 0 0 0 100 100 100 100 0 0 100 0 100 0 0 100 0 0 0 100 0 0 0 0 0 0 0 0 0 0 0 100 100 100 100 100 100 100 100 100 100 100 100 100 100 100 100 0 100 0 0 0 0 0 0 100 100 100 100 0 100 0 0 0 0 0 0 0 0 0 0 0 0 0 100 100 100 100 100 100 0 100 100 100 0 0
100 100 100 100 100 0 0 0 100 100 100 0 0 0 0 0 0 0 100 100 100 100 0 0 0 0 0 0 0 0 0 0 0 100 0 100 0 0 0 0 0 0 0 0 0 0 0 0 100 100 100 0 0 100 100 100 0 0 100 100 100 0 0 0 0 0 0 100 100 100 0 0 0 100 100 0 0 0 0 0 0 100 0 0 0 0 0 0 0 0 100 0 0 100 100 100 100 0 0 0
0 0 100 0 0 0 0 0 100 100 100 0 0 0 0 0 0 0 0 0 0 0 0 0 0 0 0 0 0 0 0 0 0 100 0 100 0 0 0 0 0 0 0 100 100 100 0 0 100 100 100 0 0 0 0 0 0 0 0 0 0 0 0 0 0 0 0 100 100 100 0 0 100 100 100 0 100 100 100 0 0 100 0 0 0 0 0 0 0 0 100 100 0 100 100 100 100 0 0 0
0 0 100 100 100 100 100 0 100 100 100 100 0 0 0 0 0 0 0 0 0 0 0 0 0 0 0 0 0 0 0 0 0 100 0 100 0 0 0 0 0 0 0 0 0 0 0 0 100 0 0 0 0 0 0 0 0 100 100 100 0 0 0 0 0 0 0 100 100 100 0 0 0 0 100 100 100 0 0 0 0 100 0 0 0 0 0 0 0 0 100 100 0 0 100 100 100 0 0 0
0 0 100 100 100 0 0 0 0 0 0 100 0 0 0 0 100 100 100 0 0 0 0 0 100 0 0 0 100 0 0 0 0 100 0 0 0 100 0 0 0 0 0 0 0 0 0 0 100 0 0 100 0 0 0 0 0 0 100 100 100 0 0 0 0 100 100 100 100 0 0 0 0 0 0 0 100 100 100 100 0 100 100 100 100 0 0 0 0 0 0 100 0 0 0 0 0 0 0 0
0 0 100 100 100 0 100 0 0 0 0 100 100 100 100 100 100 100 100 0 0 0 0 0 0 100 100 100 100 0 0 0 0 100 0 0 0 100 0 0 0 0 0 0 0 0 0 0 100 0 0 100 100 100 0 100 0 0 100 100 100 0 0 0 0 100 0 0 0 0 0 0 0 0 0 0 0 0 0 0 0 0 100 100 100 0 0 0 100 100 100 0 100 100 100 0 0 0 0 100
0 0 0 0 0 0 100 0 0 0 0 0 100 100 100 100 100 0 100 0 0 0 100 0 0 100 100 100 100 100 0 0 0 0 0 0 0 100 0 0 100 100 100 0 0 0 0 0 0 0 0 100 0 0 0 100 0 0 100 100 100 0 0 100 0 100 0 0 0 0 0 0 0 0 0 0 0 0 0 0 0 0 100 0 100 0 0 0 100 100 100 0 0 0 0 0 0 0 0 0
0 0 0 0 0 0 100 0 0 0 0 0 100 100 100 100 0 100 100 100 0 0 100 0 0 0 0 0 0 100 0 0 0 0 0 0 0 0 0 100 100 100 0 100 0 0 0 0 0 0 100 0 0 0 0 100 0 0 0 0 0 0 100 0 0 0 0 0 100 0 0 0 0 0 0 0 0 0 0 0 0 100 100 0 100 0 0 0 100 100 100 0 0 0 0 0 0 0 0 0
0 0 0 0 0 0 0 0 0 0 0 0 0 100 100 100 0 0 0 0 0 0 100 0 0 0 0 0 0 100 100 0 0 0 0 0 0 0 0 100 100 100 0 100 0 0 0 0 0 0 100 0 0 0 0 0 0 0 0 0 0 0 0 0 0 0 0 0 100 0 0 0 0 100 0 100 0 0 0 0 0 0 100 0 100 0 0 0 100 0 100 0 0 100 100 100 100 0 0 0
0 0 0 0 0 0 0 0 0 0 100 0 0 100 0 0 0 0 0 0 0 0 0 0 0 0 100 100 0 100 0 0 0 0 0 0 0 0 0 100 100 100 0 100 0 0 0 0 0 0 100 0 0 0 0 0 0 0 100 100 100 0 0 0 0 100 0 0 100 0 0 0 0 0 0 100 0 0 0 0 0 100 0 0 100 0 0 0 100 0 100 0 0 0 100 100 100 0 100 0
0 0 0 0 0 0 0 0 0 0 0 0 0 100 0 0 0 0 0 0 100 100 100 100 0 0 100 0 0 100 100 0 0 0 0 0 0 0 0 0 100 0 100 100 100 0 0 0 0 0 100 0 0 0 0 0 0 0 100 100 100 0 0 0 0 0 0 100 0 100 100 100 100 100 0 100 0 0 0 0 100 100 100 0 0 0 0 0 0 0 100 0 0 0 100 100 100 0 0 0
0 0 0 0 0 0 0 0 0 0 100 0 0 0 0 0 0 0 100 0 0 100 100 100 0 0 100 0 0 100 100 0 0 0 0 0 0 0 0 0 0 0 100 100 100 0 0 100 0 0 0 0 0 0 100 0 0 0 100 100 100 0 0 0 0 0 0 100 0 0 0 100 100 100 0 0 100 0 0 0 100 100 100 0 0 0 0 0 0 0 0 0 0 0 0 0 0 0 100 0
0 0 0 0 0 0 0 0 0 0 0 0 0 0 0 100 100 100 0 0 0 100 100 100 100 100 100 0 0 0 100 0 0 0 100 0 0 0 0 0 0 0 100 100 100 0 0 0 0 0 0 0 0 0 100 0 0 0 0 100 0 0 0 0 0 100 100 100 0 0 0 100 100 100 0 0 100 0 0 0 0 0 0 0 0 0 0 0 0 100 0 0 0 0 0 0 0 0 0 0
0 0 0 0 0 0 0 0 0 0 0 0 0 0 0 0 0 0 0 0 0 0 0 0 100 100 100 0 0 0 0 0 100 0 100 0 0 0 0 0 0 0 0 0 0 100 100 100 0 0 0 0 0 0 100 0 0 0 0 100 0 0 0 0 0 100 100 100 0 0 100 100 100 100 0 0 100 100 100 100 0 0 0 0 0 100 100 100 0 100 0 100 100 100 100 100 100 0 0 0
0 0 0 0 0 0 0 0 0 0 100 0 0 0 0 0 0 0 0 0 100 100 100 0 100 100 100 0 0 0 0 0 0 0 100 0 0 0 0 100 100 0 100 100 100 100 100 100 0 0 0 0 0 0 0 0 0 0 0 100 0 0 0 0 0 100 100 100 0 0 100 100 100 100 0 0 0 0 0 0 0 0 0 0 0 0 0 0 0 100 0 0 0 0 100 100 100 0 0 0
100 0 0 0 0 0 0 0 0 0 0 0 100 0 0 0 0 0 0 0 100 100 100 0 100 0 0 100 100 0 0 0 0 0 0 0 0 0 0 0 0 0 100 100 100 100 100 100 0 0 0 0 0 0 0 0 0 0 0 0 0 0 0 0 0 100 100 100 0 0 100 100 100 0 0 0 0 0 0 0 0 100 100 100 100 100 100 100 0 0 0 0 0 0 100 100 100 0 0 0
100 0 0 0 0 0 0 0 0 0 0 0 0 0 0 0 0 0 0 0 100 100 100 0 100 0 0 0 0 0 0 0 0 0 0 0 0 0 100 100 100 0 100 100 100 0 0 0 0 0 0 100 100 100 0 0 0 0 0 0 0 0 0 0 0 100 100 100 0 0 100 100 100 0 0 0 0 0 0 100 100 100 100 100 100 100 100 100 0 0 0 0 0 0 0 0 0 0 100 100
100 0 0 100 0 0 0 0 0 0 0 0 100 100 100 0 0 0 0 0 0 0 0 0 0 0 0 0 0 0 0 0 0 0 0 0 0 0 100 100 100 0 0 0 0 0 0 0 0 0 0 0 0 100 0 0 0 0 0 0 0 0 0 0 0 100 100 100 100 100 100 0 0 0 0 0 0 100 0 0 0 0 100 100 100 100 100 100 0 0 0 0 0 100 100 0 0 0 0 0
0 0 0 0 100 0 0 0 0 0 0 0 100 100 100 0 0 100 100 100 0 100 100 100 0 0 0 0 100 100 100 0 0 0 0 0 0 0 100 100 100 0 0 0 0 0 0 0 0 0 0 0 0 100 0 0 100 100 100 0 0 100 100 100 0 0 0 0 100 100 100 0 0 0 0 0 0 100 100 100 0 0 0 0 0 0 0 0 100 100 100 100 100 100 100 0 0 0 0 0
0 0 0 0 100 0 0 0 0 0 0 0 100 0 100 0 0 100 100 100 0 100 100 100 0 0 0 0 0 0 0 0 0 0 0 0 0 0 0 0 0 0 0 0 100 100 100 0 0 0 100 0 0 0 0 0 100 100 100 0 0 0 0 0 0 0 0 0 100 100 100 0 0 0 0 0 0 100 100 100 0 0 0 0 100 100 100 0 0 0 0 100 100 100 100 0 0 0 0 0
0 0 0 0 100 0 0 0 0 0 0 100 100 0 100 0 100 100 100 100 0 100 100 100 0 0 0 0 0 0 100 0 0 0 0 0 0 0 0 0 0 0 0 0 100 100 100 0 0 0 0 0 100 100 100 0 100 100 100 0 0 0 0 0 0 0 0 0 0 0 0 0 0 0 0 0 0 100 100 100 0 0 100 0 100 100 100 0 0 0 0 100 100 100 100 100 0 0 0 0
100 0 0 0 100 0 0 0 0 0 0 100 0 0 100 100 100 0 0 100 0 100 0 0 0 0 0 0 0 0 0 0 0 0 0 0 0 0 0 0 0 0 0 0 100 100 100 100 0 0 0 100 100 100 100 100 100 100 0 100 100 100 0 0 0 0 0 0 0 0 0 0 0 0 0 0 0 0 0 0 100 100 100 0 100 100 100 0 0 0 0 0 100 100 100 100 100 100 0 0
100 100 0 0 100 100 0 0 0 0 100 100 0 0 100 100 100 0 0 0 0 0 100 100 100 0 0 100 100 100 0 0 0 0 0 0 100 0 0 0 0 0 0 0 0 0 0 100 0 0 0 100 100 100 100 0 0 0 0 0 0 0 0 0 0 0 0 0 0 0 100 100 100 100 100 0 0 0 0 0 0 0 100 0 100 0 0 0 100 100 100 0 100 100 100 100 100 100 100 100
0 0 0 0 0 0 0 0 0 0 100 100 0 0 100 100 100 100 100 0 100 100 100 100 100 100 100 0 0 0 0 0 0 0 0 0 100 100 100 100 100 100 0 100 0 0 0 100 0 0 0 100 100 100 100 0 0 0 0 0 0 0 0 0 0 100 100 100 0 0 0 0 100 100 100 0 0 0 0 0 0 0 0 0 0 100 100 100 0 0 0 0 100 100 100 100 100 100 0 0
0 0 0 100 100 100 100 0 0 0 100 0 0 0 0 0 0 0 0 0 100 100 100 100 100 100 100 0 0 0 0 0 100 100 100 0 100 0 0 100 100 100 0 100 0 0 0 0 0 100 100 100 100 100 100 0 0 0 0 0 0 0 0 100 0 0 0 100 100 100 0 0 100 100 100 0 0 0 0 100 0 0 0 0 0 100 100 100 0 0 0 0 0 0 0 0 0 0 0 100
0 0 0 100 100 100 0 100 0 0 0 0 0 0 0 0 0 0 0 0 100 100 100 100 100 100 100 0 0 0 0 0 100 100 100 0 100 0 0 100 100 100 0 100 0 0 0 0 0 100 100 100 0 0 0 0 0 0 0 0 0 0 0 0 0 0 0 100 100 100 0 0 0 0 0 0 0 0 100 0 0 0 100 0 0 100 100 100 0 0 0 0 0 0 0 0 0 0 0 100
0 0 0 100 100 100 0 0 0 0 0 0 0 0 0 0 0 0 0 0 0 0 0 0 0 0 0 0 100 100 100 0 100 100 100 0 0 0 0 0 0 100 100 100 100 100 0 0 0 100 100 100 0 0 0 0 0 0 0 0 0 100 0 0 0 0 0 100 100 100 0 0 0 0 0 0 0 0 100 100 0 0 0 0 0 0 0 0 0 0 100 0 0 0 100 100 100 0 0 100
0 0 0 0 0 0 0 0 0 0 0 0 0 0 0 0 0 0 0 0 100 100 100 0 100 0 0 0 100 100 100 0 0 0 0 0 0 0 0 100 100 100 0 100 100 100 100 100 0 100 100 100 0 0 0 0 0 0 0 0 0 100 100 100 100 0 0 100 100 100 0 100 0 0 0 0 0 0 100 0 0 0 0 0 100 0 0 0 0 0 100 100 100 0 100 100 100 0 0 0
0 0 0 0 0 0 0 0 0 0 100 0 0 0 0 0 0 0 0 0 100 100 100 0 0 0 0 0 100 100 100 100 100 100 0 100 100 100 0 0 0 0 0 100 100 100 100 100 0 100 100 100 0 0 0 0 0 0 0 0 0 100 100 100 100 0 0 0 0 0 0 100 0 0 0 100 100 0 0 0 0 0 100 0 100 0 0 0 100 0 100 100 100 0 100 100 100 100 100 0
0 0 0 0 0 100 0 0 0 0 0 0 0 0 0 0 0 100 100 100 100 100 100 0 0 0 0 0 0 0 100 0 0 0 0 100 100 100 0 0 0 0 0 0 0 100 100 100 100 100 100 100 0 0 0 100 100 100 0 0 0 0 100 100 100 0 0 0 0 0 0 100 0 0 0 100 0 0 0 0 0 0 0 0 100 0 0 0 0 100 100 100 100 0 100 100 100 0 0 0
0 0 0 0 0 0 0 0 0 0 0 0 0 0 0 0 0 0 0 0 100 100 100 0 0 0 100 100 100 100 100 0 0 0 0 100 100 100 100 100 100 0 0 0 0 0 0 0 0 0 0 0 0 0 0 0 0 100 0 0 0 0 0 0 0 0 0 0 0 0 0 0 0 0 0 100 0 0 0 0 0 0 0 100 100 100 0 100 0 100 100 100 100 0 100 100 100 0 0 0
0 0 0 0 0 0 0 0 0 0 0 0 0 0 0 0 0 0 0 0 100 100 100 0 0 0 0 0 0 100 0 0 0 0 0 100 100 100 0 0 0 0 100 0 0 0 0 0 0 0 0 0 0 0 0 0 0 100 100 100 100 0 0 0 0 0 0 0 0 0 0 0 0 0 0 100 0 0 0 0 100 100 100 0 100 0 0 100 100 100 100 100 100 0 100 0 0 0 0 0
0 0 0 0 0 0 0 0 0 0 0 0 0 0 0 0 0 100 0 0 100 100 100 0 100 0 100 100 0 0 0 0 0 0 0 0 0 0 100 100 100 0 100 100 100 0 0 0 0 0 0 0 0 0 0 0 0 100 100 100 100 0 0 0 0 0 0 0 0 0 0 0 0 0 0 100 0 0 0 0 0 0 0 0 0 0 0 100 100 100 100 100 100 0 0 0 0 0 0 0
0 0 0 100 100 100 0 0 0 0 0 0 0 0 0 0 0 100 100 100 100 100 100 0 0 0 100 100 100 100 100 0 0 0 0 0 0 0 0 0 0 100 100 100 0 0 0 0 100 100 0 0 0 0 0 100 0 0 100 100 100 0 0 0 0 0 0 0 0 0 0 100 100 100 0 0 100 0 0 0 0 0 0 0 0 0 0 0 100 100 100 0 0 0 0 0 0 0 0 0
0 0 0 100 100 100 0 0 0 100 0 100 100 100 0 0 0 100 0 0 0 0 0 0 0 0 100 100 100 100 0 0 0 0 100 100 100 0 0 100 100 100 100 100 100 100 100 100 100 100 0 0 0 0 0 100 0 0 0 0 0 0 0 100 100 100 100 100 0 0 0 0 0 0 0 0 100 0 0 0 0 0 0 0 0 0 0 0 0 0 0 0 0 0 0 0 0 0 0 0
0 0 100 100 100 100 0 0 0 0 0 0 0 100 0 0 0 0 0 0 0 0 0 0 0 0 0 100 0 100 0 100 0 0 0 0 100 100 100 100 0 100 100 100 100 100 100 0 0 0 0 0 0 0 0 100 0 0 0 0 0 0 0 0 0 100 100 100 0 0 0 0 0 0 0 0 100 0 0 0 0 0 0 0 0 0 0 0 0 0 0 100 0 100 0 0 0 0 0 0
100 100 100 100 100 100 100 100 0 0 0 0 0 0 100 100 100 0 0 0 100 0 0 0 0 0 0 0 0 0 0 0 100 0 0 0 0 0 0 100 0 0 0 0 100 100 100 0 0 0 0 100 100 100 0 0 0 100 100 100 0 0 0 0 0 100 100 100 0 0 0 0 0 0 0 0 0 0 0 0 0 0 100 0 0 0 0 0 0 100 100 100 0 100 0 0 0 0 0 0
100 100 100 100 100 100 100 100 100 0 100 0 0 0 100 100 100 0 0 100 100 100 0 0 0 0 0 0 100 0 0 0 0 0 0 0 0 0 0 100 100 0 0 0 0 0 0 0 100 100 100 100 100 100 0 0 0 100 100 100 0 0 100 100 100 0 0 0 0 0 0 0 0 0 0 0 0 0 0 0 0 100 100 100 100 0 0 0 0 0 0 0 0 100 0 0 0 0 0 0
100 100 100 0 0 0 0 100 100 100 100 0 0 0 100 100 100 100 0 0 100 0 0 0 100 100 100 0 100 0 0 0 100 0 0 0 0 0 0 0 0 0 0 0 0 0 0 0 100 0 100 100 100 0 0 100 100 100 100 100 0 100 100 100 100 0 0 0 0 0 0 0 0 0 0 0 100 0 0 0 0 0 0 0 100 0 100 100 100 0 0 0 0 0 0 0 0 0 0 0
0 0 0 0 0 0 0 100 100 100 100 0 0 0 100 100 100 0 0 0 0 0 0 0 100 0 0 0 100 0 0 0 0 0 0 0 100 0 0 100 100 100 0 0 0 0 0 0 100 100 100 100 100 0 0 100 100 100 0 0 0 100 100 100 100 0 0 0 0 0 0 0 100 100 100 0 0 0 0 0 0 100 100 100 100 0 100 100 100 100 100 100 100 0 0 0 0 0 0 0
0 0 0 0 0 0 0 100 100 100 0 0 0 0 100 100 100 100 100 0 0 0 0 0 100 0 0 0 0 0 0 100 0 0 0 0 0 0 0 0 0 0 0 0 0 0 0 0 100 100 100 100 100 0 0 100 100 100 0 0 0 0 0 100 0 100 0 0 0 0 100 0 0 0 0 0 0 0 0 0 0 0 100 0 0 0 100 100 100 100 100 100 0 0 0 0 100 0 0 0
0 0 0 0 0 0 0 0 0 0 0 0 0 0 0 100 100 100 100 0 0 0 0 0 100 0 0 0 0 0 100 100 100 100 100 100 0 0 0 0 0 0 0 0 0 0 0 0 100 100 100 0 0 0 0 0 0 100 0 0 0 0 0 0 0 0 0 0 0 0 0 0 0 0 0 0 0 0 0 0 0 0 0 100 100 100 100 100 100 100 100 100 0 0 0 0 0 0 0 100
0 0 0 0 100 100 100 0 0 0 0 0 0 0 0 0 100 100 100 0 0 0 0 0 0 0 0 0 0 0 100 100 100 0 0 0 0 0 0 0 0 0 0 0 0 0 0 0 0 0 0 0 0 0 0 0 0 0 0 0 0 0 0 0 0 0 0 0 0 0 0 0 0 0 0 0 0 0 100 0 0 0 0 100 100 100 0 0 0 0 100 0 0 0 0 0 0 0 0 100
0 100 0 0 100 100 100 0 0 0 0 0 0 100 100 100 0 100 0 0 100 100 100 0 0 0 0 0 0 0 100 100 100 0 100 0 0 0 0 0 0 0 0 0 0 0 0 0 0 0 0 0 0 0 0 100 0 100 0 0 0 0 0 0 0 0 0 0 0 100 0 0 100 100 100 0 100 100 100 100 0 100 0 100 100 100 0 0 0 0 100 0 0 0 0 0 0 0 0 100
0 100 0 0 100 100 100 0 0 0 0 0 0 100 100 100 0 0 0 0 100 100 100 0 0 0 0 0 0 0 0 0 0 0 100 100 0 0 0 0 0 0 0 100 0 0 0 0 0 0 0 0 0 0 0 0 0 100 0 0 0 0 0 0 0 0 0 100 100 100 0 0 100 100 100 100 100 0 0 0 0 0 0 100 100 100 100 0 0 0 0 0 0 0 0 0 0 100 100 100
0 100 0 0 100 100 100 0 0 0 0 0 0 100 100 100 100 0 0 0 100 100 100 0 0 0 0 0 0 0 0 0 0 0 100 0 0 0 0 0 0 0 0 0 100 100 100 0 0 0 0 0 0 0 0 0 100 100 0 0 0 100 100 100 0 0 0 100 100 100 0 0 100 100 100 0 0 0 0 0 0 0 0 100 0 0 0 100 100 0 100 0 0 0 0 0 0 0 0 0
0 0 0 0 100 100 100 0 0 0 0 0 0 0 0 0 100 0 0 0 0 0 100 0 0 100 0 0 0 0 0 0 0 0 0 0 100 100 100 100 100 0 0 0 0 0 0 0 0 0 0 0 0 0 0 0 100 100 0 100 100 100 0 0 0 0 0 100 100 100 0 0 100 0 0 0 100 100 100 0 0 0 0 100 100 100 100 100 100 0 0 0 0 0 0 0 0 100 0 0
0 0 0 0 100 100 100 0 0 0 0 0 0 100 0 0 100 0 0 0 100 100 100 0 0 100 0 0 0 0 0 0 0 0 0 0 100 100 100 100 100 100 100 100 100 0 0 100 0 0 0 0 0 100 0 0 100 100 0 0 0 0 0 0 0 0 0 0 100 100 100 0 100 0 0 0 100 100 100 0 0 0 0 100 100 100 100 0 0 0 0 0 100 100 100 0 0 100 0 0
0 0 0 0 0 0 0 0 0 0 0 0 0 100 0 0 100 0 0 0 100 100 100 0 0 100 0 0 100 0 0 0 100 0 0 0 100 100 100 100 100 0 0 100 0 0 0 0 0 0 0 0 0 100 0 100 100 100 0 0 0 0 100 100 100 0 0 0 0 100 100 100 100 0 0 0 100 100 100 0 0 0 0 100 100 100 0 0 0 0 0 0 100 100 100 100 100 100 0 0
0 0 0 0 0 0 0 0 0 0 0 0 0 100 100 100 100 100 100 0 100 100 100 0 0 0 0 0 100 0 0 0 0 0 0 0 0 0 100 100 100 0 0 0 0 0 0 0 0 0 0 0 0 100 0 100 100 100 0 0 0 0 0 0 0 0 0 0 100 0 0 0 0 0 0 0 0 0 0 0 100 100 100 0 0 0 0 100 100 100 0 0 100 100 100 0 0 0 0 0
0 0 0 0 0 0 0 0 0 0 0 0 0 0 0 0 100 100 100 0 0 0 0 100 0 0 100 100 100 0 100 100 100 0 0 0 0 0 0 0 0 100 100 100 0 0 0 0 0 100 100 100 0 0 0 100 100 100 0 0 0 0 0 0 0 0 100 100 100 0 0 100 0 0 0 0 0 0 0 0 100 100 100 0 0 0 0 0 100 0 0 0 0 100 100 100 0 0 0 0
0 0 0 0 100 0 0 0 0 0 0 0 0 0 0 0 100 100 100 0 0 0 0 100 100 100 100 100 100 0 100 100 100 0 0 100 100 100 0 0 0 100 100 100 0 100 100 100 0 100 100 100 0 0 0 0 0 100 0 100 0 0 100 100 100 0 100 100 100 0 0 0 0 0 0 0 0 0 0 0 100 100 100 100 0 0 0 0 0 100 0 0 0 100 100 100 100 100 100 0
0 0 0 0 0 0 100 0 100 100 100 0 0 0 0 0 0 100 0 0 0 0 0 100 100 100 100 100 100 0 100 100 100 0 100 100 100 0 0 100 0 100 100 100 0 0 0 0 100 100 100 100 0 0 0 0 0 100 0 100 0 0 100 100 100 0 100 100 100 0 100 0 0 0 0 0 0 0 0 100 0 0 100 100 100 100 0 0 0 100 0 0 0 100 100 100 0 0 0 0
0 100 100 100 100 100 100 0 100 100 100 0 0 0 0 100 0 100 0 0 0 0 0 100 100 100 0 0 100 0 0 0 0 0 100 100 100 0 100 0 0 0 0 0 0 0 0 0 0 0 0 0 0 0 100 100 100 100 0 100 0 0 100 100 100 0 0 0 0 0 100 0 0 0 0 0 100 100 100 0 0 0 100 100 100 100 100 0 0 100 0 0 0 0 0 0 0 0 100 0
0 0 0 0 0 0 100 0 100 100 100 0 0 0 0 100 0 0 0 0 0 100 0 100 100 100 0 0 0 0 0 0 0 0 100 100 100 0 100 0 0 0 0 100 100 100 0 0 0 0 0 0 0 0 100 100 100 0 0 0 0 0 100 100 100 100 0 0 0 0 100 0 0 0 0 0 100 100 100 0 0 0 100 0 0 0 0 0 0 100 100 100 0 0 0 0 0 0 100 0
0 0 0 0 0 0 0 0 0 0 0 100 100 100 0 100 0 0 100 0 0 100 100 100 100 100 0 0 0 0 0 0 0 0 100 100 100 100 100 100 100 100 0 100 100 100 0 0 0 0 0 0 0 0 100 100 100 0 100 0 0 0 100 100 100 100 0 0 0 0 0 0 0 100 100 100 100 100 100 0 0 100 0 0 0 0 0 0 0 100 100 100 0 100 0 0 0 0 100 0
0 0 0 0 0 0 100 0 0 0 0 100 0 0 0 0 0 0 100 0 0 100 100 0 0 0 0 0 0 0 0 0 0 0 100 100 100 100 100 0 0 100 100 100 100 100 0 0 0 0 0 0 0 0 0 0 100 100 100 0 100 0 0 0 0 100 100 100 0 0 0 100 0 100 100 100 0 100 0 0 0 100 0 0 0 0 100 0 0 100 100 100 0 100 0 0 0 0 100 100
0 100 0 0 0 0 100 0 0 0 0 100 0 0 0 0 0 0 0 0 0 0 100 100 100 100 100 100 0 0 0 0 0 0 0 0 100 100 100 0 0 0 0 0 0 0 0 0 0 0 0 0 0 0 0 0 100 100 100 0 100 0 0 0 0 0 0 0 0 0 0 0 0 100 100 100 100 100 100 0 0 100 0 0 0 0 0 0 0 0 100 0 0 100 100 0 0 0 100 100
0 100 0 0 100 0 100 0 100 0 0 100 0 0 100 0 0 0 0 0 100 0 100 0 100 100 100 100 100 100 100 100 0 0 0 100 100 100 0 0 0 0 0 0 100 0 0 0 0 0 0 0 0 0 0 0 100 100 100 0 100 0 100 0 0 0 0 0 0 0 0 0 0 0 0 0 100 100 100 0 0 0 0 0 0 0 0 0 0 0 0 0 0 0 100 0 0 0 100 100
0 100 0 0 100 0 0 0 100 0 0 0 0 0 100 0 0 0 100 100 100 100 100 0 100 100 100 100 100 100 100 100 0 0 0 0 0 0 0 100 0 0 0 0 100 0 0 0 0 100 100 100 0 0 100 100 100 100 100 100 100 0 0 0 0 0 0 0 0 0 0 100 100 100 0 0 100 100 100 0 0 0 0 0 0 0 0 0 0 0 0 0 0 0 100 0 0 0 100 100
0 0 100 0 100 0 100 0 100 0 0 0 0 0 100 0 100 0 0 0 0 100 0 0 100 100 100 100 100 100 100 100 100 100 100 0 100 0 0 0 0 0 0 0 100 0 100 0 0 0 0 0 0 0 100 100 100 0 0 0 100 0 0 0 0 0 0 0 0 100 0 0 0 0 0 0 100 100 100 100 100 100 0 0 0 0 100 100 100 0 0 0 100 100 100 0 100 100 100 0
0 0 0 0 0 0 100 0 0 0 0 0 0 0 100 100 100 0 0 0 0 100 100 100 100 100 100 100 100 0 0 0 0 100 100 100 100 0 0 0 0 0 0 0 100 0 0 0 0 100 100 100 0 0 100 100 100 0 100 100 100 0 0 0 0 0 0 0 0 0 0 100 100 100 0 0 0 0 0 0 100 100 0 0 0 0 100 0 0 0 0 0 0 0 0 0 100 100 100 0
0 0 0 0 100 0 100 100 100 0 0 0 0 0 100 0 100 100 100 100 0 100 100 100 100 100 100 0 100 0 0 0 0 100 100 100 100 0 0 0 0 0 0 0 100 0 0 0 0 100 100 100 0 0 0 0 0 100 100 100 100 0 100 0 0 0 0 0 0 100 100 100 100 100 0 0 0 0 0 100 100 100 0 0 0 0 100 100 100 100 0 0 0 0 0 100 100 100 100 100
0 0 0 0 100 0 100 100 100 0 100 100 100 0 100 0 0 100 100 100 100 100 100 100 100 100 100 0 100 0 0 100 0 100 100 100 100 0 0 0 0 0 0 0 0 0 0 0 0 100 100 100 0 0 0 0 0 0 100 100 100 0 100 0 0 0 0 0 0 0 0 100 100 100 0 0 0 0 0 0 0 100 0 0 0 0 0 0 0 0 100 100 100 0 0 100 100 100 100 100
0 100 0 0 100 0 100 100 100 0 0 0 0 100 100 100 0 100 100 100 100 100 0 0 0 0 0 0 100 0 0 0 0 100 100 100 100 0 0 0 0 0 0 0 100 0 0 0 0 0 0 0 0 0 100 100 100 0 0 0 0 0 100 0 100 100 100 0 100 0 100 0 0 0 0 0 0 0 100 100 100 0 100 100 0 0 0 0 0 0 100 0 0 0 0 100 100 100 100 100
0 0 100 100 100 0 0 100 0 0 0 0 100 0 0 100 0 0 0 100 100 100 0 0 0 0 100 0 100 100 100 0 0 100 100 100 100 100 100 100 0 100 0 0 100 0 0 0 0 0 0 0 0 0 0 0 0 0 0 0 0 0 0 0 0 0 0 0 0 0 100 0 0 0 0 0 0 0 100 100 100 0 100 0 100 100 100 0 0 0 0 0 0 100 0 0 100 100 100 0
0 0 100 100 100 0 0 100 0 0 0 0 0 100 100 100 0 0 0 0 0 0 0 0 0 0 0 0 100 100 100 100 100 100 0 0 0 0 0 0 0 0 0 0 100 0 0 0 0 0 0 0 0 0 0 0 0 0 0 0 0 0 0 0 0 0 0 100 0 0 100 0 0 0 0 0 0 0 0 0 0 0 100 0 100 100 100 0 0 100 0 0 0 100 0 0 100 100 100 0
0 0 100 100 100 0 0 100 100 100 100 100 0 100 100 100 0 100 100 100 0 0 0 0 0 0 0 0 100 100 100 100 100 100 0 0 0 0 0 0 0 0 0 0 100 0 0 0 0 0 0 0 0 0 0 100 100 100 0 0 0 0 0 0 0 0 0 100 100 100 0 0 100 0 0 0 100 0 0 0 0 0 100 100 100 100 100 0 0 100 0 0 0 100 0 0 0 0 0 0
0 0 100 0 0 0 0 0 100 0 100 100 100 100 100 100 0 0 0 0 0 0 0 0 0 0 0 0 0 0 100 100 100 100 0 0 0 0 0 0 0 0 0 0 100 0 0 0 100 0 0 0 0 0 100 100 100 100 100 100 100 0 0 0 0 0 0 0 0 0 0 100 100 100 0 0 0 0 0 0 0 0 100 0 100 100 100 0 0 100 0 0 0 0 0 0 0 100 0 0
0 0 100 0 0 100 0 100 100 100 100 100 100 0 0 0 100 100 100 0 0 0 0 0 0 0 0 0 0 0 0 0 0 0 0 0 0 0 0 0 100 100 100 0 100 0 0 100 100 0 100 100 100 0 0 100 100 100 0 100 0 100 100 100 0 0 0 0 0 0 0 0 0 0 0 0 0 0 0 0 0 0 0 0 0 0 100 0 0 0 0 0 0 0 0 0 0 0 100 100
0 0 100 0 100 0 0 100 100 100 100 100 100 0 0 0 100 100 100 0 0 0 0 0 0 0 0 0 0 0 0 0 100 100 100 100 0 0 0 0 0 0 0 0 0 0 0 0 100 0 0 0 0 0 0 0 100 100 100 100 0 0 0 0 0 0 0 0 0 0 0 0 0 0 0 0 0 0 0 0 0 0 0 0 0 0 0 0 0 0 0 0 0 0 0 0 0 0 100 100
