P2
#Generated by exportMapLayout in Map.h. Obstacle Ratio=0.5
10 10
100
0 0 0 0 0 100 0 0 0 0
0 100 0 0 100 100 100 0 0 0
0 100 0 0 100 100 100 100 100 100
0 0 0 0 100 100 100 0 100 100
100 100 0 0 100 100 100 0 100 100
0 0 0 0 100 100 100 0 100 100
0 100 100 100 0 0 100 100 100 0
0 0 100 0 0 0 100 100 100 0
0 0 100 100 100 0 100 100 100 0
100 0 100 100 100 0 100 0 0 0