P2
#Generated by exportMapLayout in Map.h. Obstacle Ratio=0.225
20 20
100
0 0 0 0 0 0 0 0 0 100 0 100 0 0 0 0 0 0 0 0
0 0 0 0 0 0 100 100 100 100 0 0 0 0 0 0 0 0 0 0
0 0 0 0 0 0 0 0 0 100 0 0 0 0 0 0 0 0 0 100
0 0 0 0 0 0 100 0 0 0 0 0 0 0 0 0 0 0 0 0
0 0 0 0 0 0 100 0 0 0 0 0 100 0 0 100 0 0 0 0
0 0 0 0 0 0 100 0 0 0 0 0 0 0 0 100 0 0 0 0
100 100 0 0 0 0 0 0 0 0 0 0 0 0 0 100 100 100 0 0
100 100 0 0 0 0 0 0 0 0 0 0 0 0 0 0 0 0 0 0
100 100 100 100 100 100 100 100 100 100 0 0 100 100 100 0 0 0 0 0
0 0 0 100 0 100 100 100 0 0 0 0 100 100 100 0 0 0 0 0
0 0 0 0 0 100 100 100 0 0 0 0 100 100 100 0 0 0 0 0
0 100 0 0 0 100 100 100 0 0 0 0 0 0 0 0 0 0 0 0
0 0 0 0 0 0 0 0 100 100 100 0 0 0 0 0 0 0 0 0
0 0 0 0 0 0 0 0 0 0 0 0 0 0 0 0 0 0 0 0
0 0 0 0 0 0 0 0 0 0 100 0 0 0 100 100 100 0 0 0
0 0 0 0 0 0 100 0 0 0 0 0 0 0 100 100 100 0 0 0
0 0 0 0 0 0 100 0 0 0 0 0 0 0 100 100 100 0 0 0
0 0 0 0 0 0 100 0 0 0 0 100 100 100 100 100 100 100 100 0
0 0 100 0 0 0 0 0 0 0 0 100 100 100 100 100 100 100 100 0
0 0 0 0 0 0 0 0 0 0 0 100 100 100 0 0 100 100 100 0