P2
#Generated by exportMapLayout in Map.h. Obstacle Ratio=0.3108
50 50
100
0 0 0 0 0 0 0 0 0 100 100 100 100 100 100 0 0 0 0 0 0 0 0 0 0 0 100 100 100 0 0 0 0 0 0 0 0 0 0 100 0 0 0 0 0 0 0 0 0 0
0 0 0 0 0 0 0 0 0 100 100 100 100 100 100 0 100 100 100 0 0 0 0 0 0 0 0 0 0 0 0 0 0 0 0 0 0 0 0 100 0 0 0 0 0 0 0 0 0 0
0 100 0 0 0 0 0 0 0 100 100 100 100 100 100 0 0 0 0 0 0 100 100 100 100 100 0 0 0 0 0 0 0 0 0 0 0 0 0 0 0 0 0 0 0 0 0 100 100 100
0 100 0 0 0 0 0 0 0 0 0 0 0 0 0 0 0 0 0 0 0 0 0 0 0 0 0 0 0 0 0 0 0 0 0 0 0 0 0 0 0 0 0 0 0 0 0 100 100 100
0 100 100 100 100 100 100 0 0 0 0 100 100 100 100 100 0 0 0 0 0 0 0 0 0 100 100 100 100 100 0 0 0 0 0 0 0 0 100 100 100 0 100 100 100 0 0 100 100 100
0 0 100 100 100 100 100 0 0 0 0 100 100 100 100 100 0 0 0 0 0 0 0 0 0 100 100 100 100 100 0 0 0 0 100 100 100 100 100 0 0 0 100 100 100 0 0 0 0 0
0 0 100 100 100 100 100 0 0 0 0 100 100 100 100 100 100 100 100 100 100 0 0 0 0 100 100 100 100 100 0 0 0 0 100 100 100 100 100 0 0 0 100 100 100 0 0 0 0 0
0 0 0 0 0 0 0 0 0 0 0 0 100 100 100 100 100 100 100 100 100 0 0 0 0 0 100 100 100 100 100 0 0 0 100 100 100 100 100 0 0 0 0 0 0 0 0 0 0 0
0 0 100 100 100 0 0 0 0 0 0 0 100 100 100 100 100 100 100 100 100 0 0 0 0 0 0 0 0 0 0 0 0 0 100 100 100 100 100 100 100 100 100 100 0 0 0 0 0 0
0 0 0 0 0 0 0 0 0 0 0 0 0 0 0 0 0 0 0 0 100 0 0 0 0 0 0 0 0 0 0 0 0 0 100 100 100 100 100 100 100 100 100 100 0 100 0 0 0 0
0 0 0 0 0 0 0 100 100 100 0 0 0 0 0 0 0 0 0 100 100 0 0 0 0 0 0 0 0 0 0 0 0 0 0 0 0 0 100 100 100 100 100 100 100 100 0 0 0 0
0 0 0 0 0 0 0 100 100 100 0 0 0 0 0 0 100 100 100 100 100 0 0 0 0 0 0 0 0 0 0 0 0 0 0 0 0 0 100 100 100 100 100 100 100 100 0 0 0 0
0 0 0 0 0 0 0 100 100 100 0 0 0 0 0 0 100 100 100 100 100 0 0 0 0 0 0 0 0 0 0 0 0 100 100 100 100 100 100 100 100 100 100 100 100 100 0 0 0 0
0 0 0 0 0 0 0 0 0 0 0 0 0 0 0 0 100 100 100 0 100 0 0 0 0 0 0 0 0 0 0 100 100 100 100 100 100 100 100 100 100 0 0 0 0 0 0 0 0 0
0 0 0 0 0 0 0 0 0 0 0 0 0 0 100 100 100 100 100 0 100 0 0 0 0 0 0 0 0 0 0 100 100 100 100 100 100 100 100 100 100 0 0 0 0 0 0 0 0 0
0 0 0 0 0 0 0 0 0 0 0 0 0 0 100 100 100 100 100 100 0 0 0 0 0 0 0 0 0 0 0 100 100 100 100 100 100 100 100 100 100 0 0 0 0 100 100 100 0 0
0 0 0 0 0 0 0 0 0 0 0 0 0 0 100 100 100 100 100 100 0 0 0 0 0 0 0 0 0 0 0 100 100 100 100 100 100 100 100 100 100 0 0 0 0 100 100 100 0 0
0 0 0 0 0 100 100 100 0 0 0 0 0 0 100 100 100 100 100 100 0 0 0 0 100 100 100 100 100 0 0 100 100 100 100 100 100 100 100 100 100 0 0 0 0 100 100 100 0 0
0 0 0 0 0 100 100 100 0 0 0 0 0 0 100 100 100 100 100 100 0 0 0 0 100 100 100 100 100 0 0 0 0 100 100 100 100 100 100 0 100 100 100 0 0 0 0 0 0 0
0 0 0 0 0 100 100 100 0 0 0 0 0 0 0 100 100 100 100 100 0 0 0 0 100 100 100 100 100 0 0 0 0 100 100 100 100 100 100 0 100 100 100 0 0 0 0 0 0 0
0 0 0 0 0 100 100 100 0 0 0 0 0 0 0 0 0 0 0 0 0 0 0 100 100 100 100 100 0 0 0 0 0 100 100 100 100 100 100 0 100 100 100 0 0 0 0 0 0 0
0 0 0 0 0 100 100 100 0 0 0 0 0 0 0 0 0 0 0 0 0 0 0 100 100 100 0 0 0 0 0 0 0 100 100 100 100 100 100 0 100 100 100 0 0 0 0 0 0 0
100 100 100 0 0 0 0 0 0 0 0 0 0 0 0 0 0 0 0 0 0 0 0 100 100 100 0 0 0 0 0 0 0 100 100 100 100 100 100 0 100 100 100 0 0 0 0 0 0 0
100 100 100 0 0 0 0 0 0 0 0 0 0 0 0 0 0 0 0 0 0 0 0 100 100 100 0 0 0 100 0 0 0 100 100 100 0 0 0 100 100 100 100 0 0 0 0 0 0 0
100 100 100 0 0 0 0 0 0 0 0 0 0 0 0 0 0 0 0 0 0 0 0 100 100 100 100 0 0 100 0 0 100 100 100 100 100 0 0 0 100 100 100 0 0 0 0 0 0 0
100 100 100 0 0 0 0 0 0 0 0 0 0 0 0 0 0 0 0 0 0 0 0 0 0 0 0 0 0 100 0 0 100 100 100 100 100 0 0 0 0 0 0 100 100 100 100 100 0 0
100 100 100 0 0 0 0 0 0 0 0 100 100 100 100 100 0 0 0 0 0 0 0 0 0 100 100 100 100 100 0 0 100 100 100 100 100 0 0 0 0 0 0 100 100 100 100 100 0 0
100 100 100 0 0 0 0 0 0 0 0 100 100 100 100 100 0 0 0 0 0 0 0 0 0 0 100 0 100 100 100 0 0 100 100 100 0 0 0 0 0 0 100 100 100 100 100 100 0 0
100 100 100 0 0 0 0 0 0 0 0 100 100 100 100 100 0 0 0 0 0 100 100 0 0 0 100 0 100 100 100 0 0 100 100 100 0 0 0 0 0 0 0 100 100 100 100 100 0 0
0 0 0 100 100 100 100 100 0 0 0 100 100 100 100 100 0 100 0 0 0 0 100 0 0 0 100 0 100 100 100 100 0 100 100 100 0 0 0 0 0 0 0 100 100 100 100 100 0 0
0 0 0 100 100 100 100 100 0 0 0 100 100 100 100 100 0 100 0 0 0 0 100 0 0 0 0 0 0 100 100 100 0 0 0 0 0 0 0 0 0 0 100 100 100 0 0 0 0 0
100 100 100 100 100 100 100 100 0 0 0 0 0 0 0 0 0 100 0 0 0 100 100 100 0 0 0 0 0 100 100 100 0 0 0 0 0 0 0 0 0 0 0 0 0 0 0 0 0 0
100 100 100 0 0 0 0 0 0 0 0 0 0 0 0 0 0 100 100 100 100 100 100 100 0 0 0 0 0 0 0 0 0 0 0 0 0 0 0 0 0 0 0 0 0 0 0 100 100 100
100 100 100 0 0 0 0 0 0 0 0 0 0 0 0 0 0 100 100 100 100 100 100 100 0 0 0 0 100 100 100 0 0 0 0 0 0 0 0 0 0 0 0 0 0 0 0 0 0 0
0 0 0 0 0 0 0 0 0 0 0 0 0 0 0 0 0 0 100 100 100 100 100 100 0 0 0 0 100 100 100 0 0 0 0 0 0 0 0 0 0 0 0 0 0 0 0 0 0 0
0 0 0 0 0 0 0 0 0 0 0 0 0 0 0 0 0 0 0 0 0 100 100 100 100 0 0 0 100 100 100 0 0 0 0 0 0 0 0 0 0 0 0 0 0 0 0 0 0 0
0 0 0 0 0 0 0 0 100 0 0 100 100 100 0 0 0 0 0 0 0 0 100 100 100 0 0 0 0 0 0 0 0 100 0 0 0 0 0 0 0 0 0 0 0 0 0 0 0 0
0 0 0 0 0 0 0 0 0 0 0 100 100 100 100 100 100 0 0 0 100 100 100 100 100 0 0 0 0 0 0 0 0 100 0 0 0 0 0 0 0 0 0 0 0 100 100 100 0 0
0 0 0 0 0 0 0 0 0 0 0 100 100 100 100 100 100 0 0 0 100 100 100 100 100 0 0 0 0 0 0 0 0 100 0 0 0 0 0 0 0 0 0 0 0 100 100 100 0 0
0 0 0 0 0 0 0 0 0 0 0 0 0 0 100 100 100 0 0 0 100 100 100 100 100 0 0 0 0 0 0 0 0 0 0 0 0 0 0 0 0 0 0 0 0 100 100 100 0 0
0 0 0 0 0 0 0 0 0 0 0 0 0 0 0 0 0 0 0 0 0 0 0 0 0 0 0 0 0 0 0 0 0 0 0 0 0 0 0 0 0 0 0 0 0 100 100 100 0 0
0 0 0 0 0 0 0 0 0 0 0 0 0 0 0 0 0 0 0 0 0 0 0 0 0 0 0 0 0 0 100 100 100 100 100 0 0 0 0 0 0 0 0 0 0 100 100 100 0 0
0 0 0 0 0 0 0 0 0 0 0 0 0 0 0 0 0 0 0 0 0 0 0 0 0 100 100 100 100 100 0 0 0 0 0 0 0 0 0 0 0 0 0 0 0 0 0 0 0 0
0 0 0 0 0 0 0 0 0 0 0 0 0 0 0 0 0 0 0 0 0 0 0 0 0 100 100 100 100 100 0 0 0 0 0 0 0 0 0 0 0 0 0 0 0 0 0 0 0 0
0 0 0 0 0 0 0 0 0 0 0 0 0 0 0 0 0 0 0 0 0 0 0 0 0 100 100 100 100 100 0 0 0 0 0 0 0 0 0 0 0 0 0 0 0 0 0 0 0 0
0 100 100 100 100 100 100 0 0 0 0 0 0 0 0 0 0 0 0 0 0 0 100 100 100 0 100 0 0 0 100 100 100 0 0 0 0 0 0 0 0 0 0 0 0 0 0 0 100 100
0 100 100 100 100 100 100 0 0 0 0 0 0 0 0 0 0 0 0 0 0 0 100 100 100 0 0 0 0 0 100 100 100 100 100 0 0 0 0 0 0 0 0 0 0 0 0 0 100 100
0 100 100 100 100 100 100 0 0 0 0 100 100 100 0 0 0 100 100 100 100 100 100 100 100 0 0 0 0 0 100 100 100 100 100 0 0 0 0 0 0 0 0 0 0 0 0 0 100 100
0 0 0 0 0 0 100 0 0 0 0 0 0 0 0 0 0 100 100 100 100 100 100 100 100 0 0 0 0 0 100 100 100 100 100 0 0 0 0 0 0 0 0 0 0 0 0 0 100 100
0 0 0 0 0 0 100 0 0 0 0 0 0 0 0 0 0 100 100 100 100 100 100 100 100 0 0 0 0 0 100 100 100 100 100 0 0 0 0 0 0 0 0 0 0 0 0 0 100 100