P2
#Generated by exportMapLayout in Map.h. Obstacle Ratio=0.315278
60 60
100
0 0 100 0 0 0 0 0 0 0 0 0 0 0 0 0 0 0 0 0 0 0 0 0 0 0 0 0 0 100 100 100 100 100 0 0 0 0 0 100 100 100 0 0 0 0 0 0 0 0 0 0 0 0 100 100 100 0 100 100
0 0 100 0 0 0 0 0 0 0 0 0 0 0 100 100 100 100 100 0 0 0 0 0 0 0 0 0 0 100 100 100 100 100 0 0 0 0 0 100 100 100 0 0 0 0 0 0 0 0 0 0 0 0 100 100 100 0 100 100
100 100 100 0 0 0 0 0 100 100 100 0 0 0 100 100 100 100 100 0 100 100 100 0 0 0 0 0 0 100 100 100 100 100 0 0 0 0 0 0 0 0 100 100 100 100 100 0 0 0 0 0 0 0 100 100 100 0 100 100
0 0 100 0 0 0 100 0 0 0 0 0 0 0 100 100 100 100 100 0 100 100 100 0 0 0 0 0 0 0 100 100 100 0 0 0 0 0 0 0 0 0 100 100 100 100 100 0 0 0 0 0 0 0 0 0 0 0 0 0
0 0 0 0 0 0 0 100 100 100 100 100 0 0 0 0 0 0 0 0 100 100 100 0 0 0 0 0 100 100 100 100 100 0 0 0 0 0 0 0 0 0 100 100 100 100 100 0 0 0 0 0 0 0 0 0 0 0 0 0
0 0 0 0 0 0 0 0 0 0 0 0 0 0 0 0 0 0 0 0 0 0 0 0 0 0 0 0 100 100 100 0 0 0 0 0 0 0 0 0 0 0 100 100 100 100 100 0 0 0 100 100 100 0 0 0 0 0 0 0
0 0 0 0 0 0 0 0 100 100 100 0 0 0 0 0 0 0 0 0 0 0 0 0 0 0 0 0 100 100 100 0 0 0 0 0 0 0 0 0 0 0 100 100 100 100 100 0 0 0 100 100 100 0 0 0 100 0 0 0
100 100 100 0 0 0 100 100 100 100 100 0 0 0 0 0 0 0 0 0 0 0 0 0 0 0 0 0 0 0 0 0 0 0 0 0 0 100 0 0 0 0 0 0 100 100 100 100 100 0 100 100 100 0 0 0 100 0 0 0
100 100 100 0 0 0 0 0 100 100 100 0 0 0 0 0 0 0 0 0 0 100 100 100 100 100 0 0 0 0 0 0 0 0 0 0 0 100 0 0 0 0 0 0 100 100 100 100 100 0 100 100 100 0 0 0 100 0 0 0
100 100 100 0 0 0 0 0 0 0 0 0 0 0 0 0 0 0 0 0 0 100 100 100 100 100 0 0 0 0 0 0 0 0 0 0 0 100 0 0 0 0 0 0 100 100 100 100 100 0 100 100 100 0 0 0 0 0 0 0
0 0 0 0 0 0 0 0 0 0 0 0 0 0 0 0 0 0 0 0 0 100 100 100 100 100 0 0 0 0 0 0 0 0 0 0 0 0 0 0 0 0 0 0 100 100 100 100 100 0 0 100 100 100 0 0 0 0 0 0
0 0 0 0 0 0 0 0 0 0 0 0 0 0 0 0 0 0 0 0 0 0 0 0 0 0 0 0 0 0 0 0 0 0 0 0 0 0 0 0 0 0 0 0 100 100 100 100 100 0 0 100 100 100 0 0 0 0 0 0
0 0 0 0 0 0 0 0 0 0 0 100 100 100 100 100 0 0 0 0 0 0 0 0 0 0 0 0 0 0 0 0 0 0 0 0 0 0 0 0 0 0 0 0 0 0 0 0 100 100 100 100 100 100 0 0 0 100 0 0
0 0 0 100 0 0 0 0 0 0 0 100 100 100 100 100 0 0 0 0 0 0 0 0 0 0 0 0 0 0 0 0 0 0 0 0 0 0 0 0 0 0 0 100 100 100 100 100 0 0 0 100 100 100 100 100 100 100 0 0
0 0 100 100 0 0 0 0 0 0 0 100 100 100 100 100 0 0 0 100 100 100 0 0 0 0 0 0 0 0 0 0 0 0 0 0 0 0 0 0 0 0 0 100 100 100 100 100 100 100 100 100 100 100 100 100 100 100 0 0
0 0 100 100 0 0 0 0 0 0 0 100 100 100 100 100 0 0 0 100 100 100 0 0 0 0 0 0 0 0 0 0 0 0 0 0 100 0 0 0 0 0 0 100 100 100 100 100 100 100 100 100 100 100 100 100 100 100 0 0
0 0 100 0 100 100 100 100 100 0 0 100 100 100 100 100 0 0 0 100 100 100 0 100 100 100 100 100 0 0 0 0 0 0 0 0 100 0 0 0 0 0 0 100 100 100 100 100 100 100 100 100 100 0 0 100 0 100 0 0
0 0 0 0 100 100 100 100 100 0 0 100 100 100 100 100 0 0 0 100 100 100 0 100 100 100 100 100 0 0 0 0 0 0 0 0 100 100 100 100 100 0 0 100 100 100 100 100 0 0 0 0 0 0 0 100 100 0 0 0
0 0 0 0 100 100 100 100 100 0 0 100 100 100 100 100 0 0 0 100 100 100 0 100 100 100 100 100 0 0 0 0 0 0 0 0 100 100 100 100 100 0 0 0 0 100 100 100 0 0 0 0 0 0 0 100 100 0 0 0
0 0 0 0 0 0 0 0 0 0 0 0 0 0 0 0 0 0 0 100 100 100 100 100 0 0 0 0 0 0 0 0 0 0 0 0 100 100 100 100 100 0 0 0 0 100 100 100 100 0 0 0 0 0 0 100 100 0 0 0
0 0 0 0 0 0 0 0 0 0 0 0 0 0 0 0 0 0 0 100 100 100 100 100 0 0 0 0 0 0 0 0 0 0 0 0 100 100 100 100 100 0 0 0 0 0 0 0 100 0 0 0 0 0 0 100 0 0 0 0
0 0 0 0 0 0 0 0 0 0 0 0 0 0 0 0 0 0 0 100 100 100 100 100 0 0 0 0 0 0 0 0 0 0 0 0 100 100 100 100 100 0 0 0 0 0 0 0 100 0 0 0 0 0 0 0 0 0 0 0
0 0 0 0 0 100 100 100 0 0 0 0 0 0 0 0 0 0 0 100 100 100 100 100 0 0 0 0 0 0 0 0 0 0 0 0 0 100 100 100 0 0 0 0 0 0 0 0 100 0 0 0 0 0 0 0 0 0 0 0
0 0 0 0 0 100 100 100 0 0 0 0 0 0 0 0 0 0 0 100 100 100 100 100 0 0 0 0 0 0 0 0 0 0 0 0 0 100 100 100 0 0 100 100 100 100 100 0 100 0 0 0 0 0 0 0 0 0 0 0
100 100 100 0 0 100 100 100 0 0 100 100 100 0 0 100 100 100 0 0 0 0 100 100 100 0 0 0 0 0 0 0 0 0 0 0 100 100 100 100 100 0 0 0 0 0 0 100 100 100 100 100 100 100 100 0 0 0 0 0
0 0 0 0 0 0 0 0 0 0 0 0 0 0 0 0 0 0 0 0 0 0 100 100 100 100 100 100 100 100 0 0 0 0 0 0 100 100 100 100 100 0 0 0 0 0 0 100 100 100 0 0 100 100 100 100 100 100 0 0
0 100 100 100 0 0 0 0 0 0 0 100 100 100 0 0 100 100 100 0 0 0 100 100 100 0 0 0 0 0 0 0 0 0 0 0 100 100 100 100 100 0 0 0 0 0 0 100 100 100 0 0 100 100 100 0 0 0 0 0
0 0 0 0 0 0 0 0 0 0 0 100 100 100 0 0 100 100 100 0 0 0 0 0 0 0 0 0 0 0 0 0 0 0 0 0 100 100 100 100 100 0 0 0 0 0 0 100 100 100 0 0 100 100 100 0 0 0 0 0
0 0 0 0 0 0 0 0 100 100 100 100 100 100 0 0 100 100 100 0 0 0 0 0 0 0 0 100 100 0 0 100 100 100 100 100 100 100 100 100 100 0 0 100 0 0 0 100 100 100 0 0 100 100 100 0 0 0 0 0
0 0 0 0 0 0 0 0 100 100 100 100 100 100 0 0 100 100 100 0 0 0 0 0 0 0 0 100 0 0 0 100 100 100 100 100 0 0 0 0 0 0 0 100 0 0 0 0 0 0 0 0 0 0 0 0 0 0 0 0
100 100 0 0 0 0 0 0 100 100 100 100 100 100 0 0 100 100 100 0 0 0 0 0 0 0 0 100 100 0 0 100 100 100 100 100 100 100 0 0 0 0 0 100 100 100 100 0 0 0 100 100 100 100 100 0 0 0 0 0
100 100 0 0 0 0 0 0 0 0 0 0 0 0 0 0 0 0 0 0 0 0 100 100 100 0 0 0 100 0 0 0 0 100 100 100 100 100 0 0 0 0 0 0 100 100 100 0 0 0 0 0 0 0 0 0 0 0 0 0
100 100 0 0 0 0 0 0 0 0 0 0 100 0 0 0 0 0 0 0 0 0 0 0 0 0 0 0 100 0 0 0 0 100 100 100 100 100 0 0 0 0 0 0 100 100 100 0 0 0 0 0 0 0 0 0 0 0 0 0
0 0 0 100 100 100 100 100 0 0 0 0 0 0 0 0 0 0 0 100 0 0 0 0 0 0 0 0 0 0 0 0 0 100 100 100 100 100 100 0 0 0 0 0 0 0 100 0 0 0 0 0 0 0 0 0 0 0 0 0
0 0 0 100 100 100 100 100 0 0 0 0 0 0 0 0 0 0 0 100 0 0 0 0 0 0 0 0 0 0 0 0 0 100 100 100 100 100 100 0 0 0 0 0 0 0 100 0 0 0 0 0 0 0 0 0 0 0 0 0
0 0 0 100 100 100 100 100 100 100 0 0 0 0 0 0 0 0 0 100 0 0 0 0 100 0 0 0 0 0 0 0 0 0 100 100 100 100 100 0 0 0 0 0 0 0 100 0 0 0 0 0 0 0 0 0 0 0 100 100
0 0 0 100 100 100 100 100 100 100 100 100 0 0 0 0 0 0 0 0 0 0 0 0 0 0 0 0 0 0 0 0 0 0 100 100 100 100 100 0 0 0 0 0 100 100 100 100 0 0 0 0 0 0 0 0 0 0 100 100
0 0 0 100 100 100 100 100 100 100 0 0 0 100 100 100 0 0 0 0 0 0 0 0 0 0 0 0 0 0 100 0 0 0 100 100 100 100 100 0 0 0 0 0 100 100 100 100 0 0 0 0 0 0 0 0 0 0 100 100
0 0 0 0 0 0 0 0 0 0 0 0 0 100 100 100 0 0 0 0 100 100 100 0 0 0 0 0 0 0 100 0 0 0 100 100 100 0 0 0 0 0 0 100 100 100 100 100 100 100 100 100 100 0 0 0 0 0 0 0
0 0 0 0 0 0 0 0 0 0 0 0 0 100 100 100 0 0 0 0 100 100 100 0 0 0 0 0 0 0 100 0 0 0 100 100 100 0 0 0 0 0 0 0 0 100 100 100 0 0 0 0 0 0 0 0 0 0 0 0
0 0 0 0 0 0 100 100 100 0 100 100 100 100 100 100 0 0 0 0 100 100 100 0 0 0 0 0 100 100 100 0 0 0 100 100 100 0 0 0 0 0 0 0 0 100 100 100 0 0 0 0 0 0 0 0 0 100 0 0
0 0 100 0 0 0 100 100 100 0 0 0 0 100 100 100 0 0 100 100 100 100 100 0 0 0 0 0 100 100 100 0 0 0 100 100 100 0 0 0 0 0 0 100 100 100 100 100 0 0 0 0 0 0 0 0 0 100 0 0
0 0 100 0 0 0 100 100 100 100 0 0 0 100 100 100 100 100 100 100 100 100 100 0 0 0 0 0 100 100 100 0 0 0 0 0 0 0 0 0 0 0 0 100 100 100 0 0 0 0 0 0 0 0 0 0 0 100 0 0
0 0 100 0 0 0 0 100 100 100 0 0 0 100 100 100 100 100 100 100 100 0 0 0 0 0 0 0 100 100 100 0 100 100 100 100 100 0 0 0 0 0 0 100 100 100 100 100 100 0 0 0 0 0 100 100 100 100 100 0
0 0 100 0 0 0 0 100 100 100 0 0 0 100 100 100 100 100 100 100 0 0 0 0 0 0 0 0 100 100 100 0 100 100 100 100 100 0 0 0 100 0 0 0 0 0 0 0 0 100 100 100 0 0 100 100 100 100 100 0
0 0 100 100 100 0 0 0 100 100 100 0 0 0 0 0 0 0 0 0 0 0 0 0 0 0 0 0 100 100 100 0 100 100 100 100 100 0 0 0 100 0 0 0 0 0 0 0 0 100 100 100 0 0 100 100 100 100 100 100
0 0 0 0 0 0 0 0 0 0 0 0 0 0 0 0 0 0 0 0 100 100 100 100 100 0 0 0 100 100 100 0 0 0 0 0 0 0 0 0 100 0 0 0 100 100 100 0 0 100 100 100 0 0 100 100 100 100 100 100
100 100 100 0 0 0 0 0 0 0 0 100 100 100 0 0 0 0 0 0 100 100 100 100 100 0 100 100 100 0 0 0 0 0 0 0 0 0 0 0 0 0 0 0 100 100 100 0 0 0 0 0 0 0 100 100 100 100 100 100
100 100 100 0 0 0 0 0 0 0 0 100 100 100 0 0 0 0 0 0 100 100 100 100 100 0 100 100 100 0 0 0 0 0 0 0 0 0 0 0 0 0 0 0 100 100 100 0 0 0 0 0 100 100 100 0 0 0 0 0
100 100 100 100 100 0 0 0 0 0 0 100 100 100 0 0 0 0 0 0 0 0 0 0 0 0 100 100 100 0 0 0 0 0 0 0 0 0 0 0 0 0 0 0 100 100 100 0 0 0 0 0 100 100 100 0 0 0 0 0
100 100 100 100 100 0 0 0 0 0 0 0 0 0 0 0 0 0 0 0 100 0 0 0 0 0 100 100 100 0 0 0 0 0 0 0 0 0 0 0 0 0 0 0 100 100 100 0 0 0 0 0 100 100 100 0 0 0 0 0
100 100 100 100 100 0 0 0 0 0 0 0 0 0 0 0 0 0 0 0 100 0 0 0 0 0 100 100 100 0 0 100 100 100 100 100 0 0 0 0 0 100 100 100 0 0 0 0 0 0 0 0 0 0 0 100 100 100 100 100
0 0 0 0 0 0 0 0 100 100 100 0 0 0 0 100 100 100 0 0 100 0 0 0 0 0 0 0 0 0 0 100 100 100 100 100 0 0 0 0 0 100 100 100 100 100 0 0 0 0 0 0 0 0 0 100 100 100 100 100
0 0 0 0 0 0 0 0 0 0 0 0 0 0 0 100 100 100 0 0 0 0 0 0 0 0 0 0 0 0 0 100 100 100 100 100 0 0 0 0 0 100 100 100 0 0 0 0 0 0 100 100 100 0 0 100 100 100 100 100
100 100 100 0 0 0 0 0 0 0 0 0 0 0 0 100 100 100 0 0 0 0 0 0 0 0 0 0 0 0 0 0 100 0 0 0 0 0 0 0 0 100 100 100 0 0 0 0 0 0 0 0 0 0 0 0 0 0 0 0
100 100 100 0 0 0 0 0 0 0 0 0 0 0 0 100 100 100 0 0 0 0 0 0 0 0 0 0 0 0 0 0 100 0 0 0 0 0 0 0 0 100 100 100 0 0 0 0 0 0 0 0 0 0 100 100 100 0 0 0
100 100 100 0 0 0 0 0 0 0 0 0 0 0 0 100 100 100 0 0 0 0 0 0 0 0 0 0 0 0 0 0 100 0 0 0 0 0 0 0 0 0 100 0 0 0 0 0 0 0 0 0 0 0 100 100 100 0 0 0
0 100 0 0 0 0 0 0 0 0 0 0 100 100 100 100 100 100 0 0 0 0 0 0 0 0 0 0 0 0 0 0 100 0 0 0 0 0 0 0 0 0 100 0 0 0 0 0 0 0 0 0 0 0 100 100 100 0 100 100
0 0 0 0 0 0 0 0 0 0 0 0 100 100 100 100 100 100 0 0 0 0 0 0 0 0 0 0 0 0 0 0 0 0 0 0 0 0 0 0 0 100 100 100 100 100 0 0 0 0 0 0 0 0 100 100 100 0 100 100
0 0 0 0 0 0 0 0 0 0 0 0 100 100 100 100 100 100 0 0 0 0 0 0 0 0 0 0 0 0 0 0 0 0 0 0 0 0 0 0 0 100 100 100 0 0 0 0 0 0 0 0 0 0 100 100 100 0 100 100